<svg xmlns="http://www.w3.org/2000/svg" width="116.333" height="179.343" viewBox="0 0 116.333 179.343">
  <defs>
    <style>
      .cls-1 {
        opacity: 0.66;
      }

      .cls-2 {
        fill: #ccc;
      }

      .cls-3 {
        fill: #e6e6e6;
      }

      .cls-4 {
        fill: #2f2e41;
      }

      .cls-5 {
        fill: #468baa;
      }

      .cls-6 {
        fill: #ffb9b9;
      }

      .cls-7 {
        fill: #54c4c6;
      }

      .cls-8 {
        fill: #3f3d56;
      }

      .cls-9 {
        fill: #6c63ff;
      }
    </style>
  </defs>
  <g id="Grupo_2167" data-name="Grupo 2167" class="cls-1" transform="translate(-579.471 -360.364)">
    <rect id="Retângulo_3590" data-name="Retângulo 3590" class="cls-2" width="35.474" height="39.666" transform="translate(623.243 440.197)"/>
    <path id="Caminho_1454" data-name="Caminho 1454" class="cls-3" d="M53.551,543.479H35.492L33.557,528H55.486Z" transform="translate(551.633 -3.955)"/>
    <path id="Caminho_1455" data-name="Caminho 1455" class="cls-3" d="M379.434,701.724l-.61,8.331a2.652,2.652,0,0,0,2.806,2.841l4.279-.259a1.353,1.353,0,0,0,1.23-1.678l-2.375-9.5Z" transform="translate(262.014 -173.412)"/>
    <path id="Caminho_1456" data-name="Caminho 1456" class="cls-3" d="M490.461,706.919c5.037,1.178,8.634,2.853,11,5.119a4.849,4.849,0,0,0,3.1,1.33,7.933,7.933,0,0,0,3.605-.495h0a1.429,1.429,0,0,0,.846-1.177,1.454,1.454,0,0,0-.609-1.344l-11.945-8.5-5.074,2.03-1.184,1.184a1.172,1.172,0,0,0,.258,1.852Z" transform="translate(186.782 -173.68)"/>
    <path id="Caminho_1457" data-name="Caminho 1457" class="cls-4" d="M371.932,218.342l-34.143-.316a29.167,29.167,0,0,1,3.772-14.226,12.954,12.954,0,0,0,1.225-8.625,11.6,11.6,0,0,1,4.011-10.8,12.873,12.873,0,0,1,8.657-2.864l.663.028a12.9,12.9,0,0,1,10.6,6.376,10.748,10.748,0,0,1,1.278,6.547,10.841,10.841,0,0,0,1.513,6.45C371.6,205.678,372.049,211.778,371.932,218.342Z" transform="translate(289.811 178.865)"/>
    <path id="Caminho_1458" data-name="Caminho 1458" class="cls-5" d="M389.011,526.337l-6.7,1.748L349.679,457l2.039,69.34h-6.7c-7.16-32.623-20.088-70.273-14.276-82.159l34.67-2.039Z" transform="translate(295.576 2.28)"/>
    <circle id="Elipse_686" data-name="Elipse 686" class="cls-6" cx="9.032" cy="9.032" r="9.032" transform="translate(635.932 367.211)"/>
    <path id="Caminho_1459" data-name="Caminho 1459" class="cls-6" d="M384.807,260.2l-14.859-.874a16.329,16.329,0,0,0,1.457-9.614h11.071C382.451,252.053,383.618,256.109,384.807,260.2Z" transform="translate(268.023 132.652)"/>
    <path id="Caminho_1460" data-name="Caminho 1460" class="cls-7" d="M203.658,165.577l-32.63,2.331,3.35-57.832,5.681-1.6,6.409,1.457,6.409-3.2,4.079,1.457Z" transform="translate(458.495 281.463)"/>
    <path id="Caminho_1461" data-name="Caminho 1461" class="cls-3" d="M314.09,368.291l-22.288-5.1c6.627-21.977,18.567-72.254,14.713-90.171l11.654-5.244Z" transform="translate(320.968 120.411)"/>
    <path id="Caminho_1462" data-name="Caminho 1462" class="cls-3" d="M309.738,313.347l-8.449-5.244,7.206-21.1a9.955,9.955,0,0,1,4.352-5.169l2.427-1.405-1.457,21.268Z" transform="translate(314.541 111.842)"/>
    <path id="Caminho_1463" data-name="Caminho 1463" class="cls-3" d="M435.764,362.26c-7.035,4.07-24.619,6.339-32.339,3.5-.568-19.857-1.682-76.023,1.894-99.786l12.819,5.244-1.165,15.733C410.844,300.406,428.64,347.281,435.764,362.26Z" transform="translate(245.763 121.635)"/>
    <path id="Caminho_1464" data-name="Caminho 1464" class="cls-3" d="M290.566,150.9l-7.867-2.622L272.211,136.33l1.748-15.15,17.481,24.473Z" transform="translate(389.942 271.669)"/>
    <path id="Caminho_1465" data-name="Caminho 1465" class="cls-6" d="M425.289,400.877a2.188,2.188,0,0,0,2.614,1.649l6.677-1.512-.965-4.262-6.678,1.512A2.186,2.186,0,0,0,425.289,400.877Z" transform="translate(230.566 33.03)"/>
    <path id="Caminho_1466" data-name="Caminho 1466" class="cls-4" d="M380.522,207.595a19.241,19.241,0,0,0-14.859-.291l-2.039-7.284H382.27Z" transform="translate(272.308 166.317)"/>
    <path id="Caminho_1467" data-name="Caminho 1467" class="cls-3" d="M444.029,369.773l3.787,6.992c6.371-1.777,11.892-7.378,17.189-13.985l-1.457-4.662-9.032,2.331Z" transform="translate(217.833 59.203)"/>
    <path id="Caminho_1468" data-name="Caminho 1468" class="cls-8" d="M418.309,288.329h-1.165c0-16.483-3.394-27.969-6.7-27.969l-.291-1.165c2.966,0,4.857,4.781,5.921,8.791A82.978,82.978,0,0,1,418.309,288.329Z" transform="translate(240.785 126.226)"/>
    <path id="Caminho_1469" data-name="Caminho 1469" class="cls-8" d="M349.883,285.474h-1.165c0-15.1,3.417-24.473,8.449-24.473l-.291,1.165C353.4,262.167,349.883,269.374,349.883,285.474Z" transform="translate(282.407 125.002)"/>
    <circle id="Elipse_687" data-name="Elipse 687" class="cls-8" cx="2.913" cy="2.913" r="2.913" transform="translate(655.598 411.933)"/>
    <path id="Caminho_1470" data-name="Caminho 1470" class="cls-8" d="M335.429,342.657h-1.165c0-4.177,2.353-7.575,5.244-7.575v1.165C337.258,336.247,335.429,339.123,335.429,342.657Z" transform="translate(292.2 74.811)"/>
    <path id="Caminho_1471" data-name="Caminho 1471" class="cls-8" d="M355.769,342.657H354.6c0-3.534-1.83-6.41-4.079-6.41v-1.165C353.417,335.082,355.769,338.48,355.769,342.657Z" transform="translate(281.183 74.811)"/>
    <circle id="Elipse_688" data-name="Elipse 688" class="cls-8" cx="1.165" cy="1.165" r="1.165" transform="translate(635.204 416.594)"/>
    <circle id="Elipse_689" data-name="Elipse 689" class="cls-8" cx="1.165" cy="1.165" r="1.165" transform="translate(625.881 416.594)"/>
    <path id="Caminho_1472" data-name="Caminho 1472" class="cls-9" d="M118.177,165.193l7.271,1.3,16.619,23.631-8.829-2.077Z" transform="translate(494.302 241.85)"/>
    <path id="Caminho_1473" data-name="Caminho 1473" class="cls-8" d="M285.62,325.347a.618.618,0,0,0-.507.958l15.535,23.57a.616.616,0,0,0,.374.261l7.228,1.7a.617.617,0,0,0,.646-.956L291.84,326.629a.614.614,0,0,0-.4-.253l-5.707-1.019a.671.671,0,0,0-.117-.011Z" transform="translate(325.569 81.407)"/>
    <path id="Caminho_1474" data-name="Caminho 1474" class="cls-6" d="M316.949,376.16l.432,4.349,6.813-.676a2.185,2.185,0,1,0-.432-4.349Z" transform="translate(303.931 47.446)"/>
    <path id="Caminho_1475" data-name="Caminho 1475" class="cls-3" d="M298.578,368.384a5.62,5.62,0,0,0,5.613,5.582h1.12l.816-6.8-6.753-2.431Z" transform="translate(316.377 54.719)"/>
    <path id="Caminho_1481" data-name="Caminho 1481" class="cls-3" d="M191.562,638.375c4.65,6.228,14.3,6.883,14.3,6.883s2.113-9.441-2.537-15.669-14.3-6.883-14.3-6.883S186.912,632.148,191.562,638.375Z" transform="translate(390.925 -120.057)"/>
    <path id="Caminho_1482" data-name="Caminho 1482" class="cls-3" d="M250.862,656.832c-3.069,4.109-9.438,4.542-9.438,4.542s-1.395-6.23,1.674-10.34,9.438-4.542,9.438-4.542S253.931,652.722,250.862,656.832Z" transform="translate(355.314 -136.173)"/>
  </g>
</svg>
